<svg aria-hidden="true" style="position: absolute; width: 0; height: 0; overflow: hidden;" version="1.1" xmlns="http://www.w3.org/2000/svg" xmlns:xlink="http://www.w3.org/1999/xlink">
<defs>
<symbol id="icon-add-to-list" viewBox="0 0 20 20">
<title>add-to-list</title>
<path d="M19.4 9h-3.4v-3.4c0-0.6-0.4-0.6-1-0.6s-1 0-1 0.6v3.4h-3.4c-0.6 0-0.6 0.4-0.6 1s0 1 0.6 1h3.4v3.4c0 0.6 0.4 0.6 1 0.6s1 0 1-0.6v-3.4h3.4c0.6 0 0.6-0.4 0.6-1s0-1-0.6-1zM7.4 9h-6.8c-0.6 0-0.6 0.4-0.6 1s0 1 0.6 1h6.8c0.6 0 0.6-0.4 0.6-1s0-1-0.6-1zM7.4 14h-6.8c-0.6 0-0.6 0.4-0.6 1s0 1 0.6 1h6.8c0.6 0 0.6-0.4 0.6-1s0-1-0.6-1zM7.4 4h-6.8c-0.6 0-0.6 0.4-0.6 1s0 1 0.6 1h6.8c0.6 0 0.6-0.4 0.6-1s0-1-0.6-1z"></path>
</symbol>
<symbol id="icon-classic-computer" viewBox="0 0 20 20">
<title>classic-computer</title>
<path d="M16 0h-12c-1.1 0-2 0.899-2 2v15c0 0.552 0.447 1 1 1v2h14v-2c0.553 0 1-0.448 1-1v-15c0-1.101-0.899-2-2-2zM14 15h-4v-1h4v1zM15 11h-10v-8h10v8z"></path>
</symbol>
<symbol id="icon-controller-fast-backward" viewBox="0 0 20 20">
<title>controller-fast-backward</title>
<path d="M17.959 4.571l-7.203 4.949c0 0-0.279 0.201-0.279 0.481s0.279 0.479 0.279 0.479l7.203 4.951c0.572 0.38 1.041 0.099 1.041-0.626v-9.609c0-0.727-0.469-1.008-1.041-0.625zM8.883 4.571l-7.203 4.949c0 0-0.279 0.201-0.279 0.481s0.279 0.479 0.279 0.479l7.203 4.951c0.572 0.381 1.041 0.1 1.041-0.625v-9.61c0-0.727-0.469-1.008-1.041-0.625z"></path>
</symbol>
<symbol id="icon-creative-commons-attribution" viewBox="0 0 20 20">
<title>creative-commons-attribution</title>
<path d="M12.583 7.623c0-0.342-0.278-0.62-0.62-0.62h-3.927c-0.342 0-0.62 0.277-0.62 0.62v3.927h1.095v4.65h2.976v-4.65h1.095v-3.927z"></path>
<path d="M11.343 5.143c0 0.742-0.601 1.343-1.343 1.343s-1.343-0.601-1.343-1.343c0-0.742 0.601-1.343 1.343-1.343s1.343 0.601 1.343 1.343z"></path>
<path d="M9.988 0.4c-2.659 0-4.91 0.928-6.752 2.784-1.891 1.92-2.835 4.192-2.835 6.816s0.945 4.88 2.835 6.768c1.89 1.888 4.141 2.832 6.752 2.832 2.643 0 4.934-0.952 6.873-2.856 1.826-1.808 2.74-4.056 2.74-6.744s-0.929-4.96-2.788-6.816c-1.859-1.856-4.133-2.784-6.825-2.784zM10.012 2.128c2.179 0 4.029 0.768 5.551 2.304 1.538 1.52 2.307 3.376 2.307 5.568 0 2.208-0.753 4.040-2.259 5.496-1.586 1.568-3.452 2.352-5.599 2.352s-3.997-0.776-5.551-2.328-2.331-3.392-2.331-5.52c0-2.128 0.785-3.984 2.355-5.568 1.506-1.536 3.348-2.304 5.527-2.304z"></path>
</symbol>
<symbol id="icon-creative-commons-noderivs" viewBox="0 0 20 20">
<title>creative-commons-noderivs</title>
<path d="M9.988 0.4c-2.659 0-4.91 0.928-6.752 2.784-1.891 1.92-2.835 4.192-2.835 6.816s0.945 4.88 2.835 6.768c1.89 1.888 4.141 2.832 6.752 2.832 2.643 0 4.934-0.952 6.873-2.856 1.826-1.808 2.74-4.056 2.74-6.744s-0.929-4.961-2.788-6.816c-1.859-1.856-4.133-2.784-6.825-2.784zM10.012 2.127c2.179 0 4.029 0.768 5.551 2.304 1.538 1.52 2.307 3.376 2.307 5.568 0 2.208-0.753 4.040-2.259 5.496-1.586 1.568-3.452 2.351-5.599 2.351s-3.997-0.776-5.551-2.328c-1.554-1.552-2.331-3.392-2.331-5.519 0-2.129 0.785-3.984 2.355-5.568 1.506-1.536 3.348-2.304 5.527-2.304z"></path>
<path d="M13.627 7.725h-6.978v1.653h6.978v-1.653zM13.627 10.81h-6.978v1.653h6.978v-1.653z"></path>
</symbol>
<symbol id="icon-creative-commons-noncommercial-eu" viewBox="0 0 20 20">
<title>creative-commons-noncommercial-eu</title>
<path d="M16.812 3.184c-1.859-1.856-4.133-2.784-6.824-2.784-2.66 0-4.91 0.928-6.752 2.784-1.891 1.92-2.835 4.192-2.835 6.816s0.945 4.88 2.835 6.768c1.89 1.888 4.141 2.832 6.752 2.832 2.643 0 4.934-0.952 6.872-2.856 1.826-1.808 2.74-4.056 2.74-6.744s-0.929-4.961-2.788-6.816zM15.61 15.496c-1.586 1.568-3.452 2.351-5.599 2.351s-3.997-0.776-5.551-2.328c-1.554-1.552-2.331-3.392-2.331-5.52 0-0.9 0.142-1.751 0.423-2.553l2.544 1.126h-0.183v1.141h0.9c0 0.161-0.016 0.322-0.016 0.482v0.274h-0.884v1.141h1.045c0.145 0.852 0.466 1.543 0.9 2.089 0.9 1.189 2.346 1.832 3.921 1.832 1.029 0 1.961-0.305 2.507-0.611l-0.386-1.784c-0.338 0.177-1.092 0.418-1.832 0.418-0.804 0-1.559-0.241-2.073-0.82-0.241-0.273-0.418-0.643-0.53-1.125h3.494l4.965 2.198c-0.344 0.609-0.78 1.172-1.314 1.688zM9.367 10.47l-0.021-0.016 0.036 0.016h-0.015zM12.355 9.714h0.144v-1.141h-2.721l-1.105-0.489c0.095-0.214 0.208-0.405 0.339-0.555 0.498-0.612 1.205-0.868 1.977-0.868 0.707 0 1.366 0.209 1.784 0.386l0.45-1.832c-0.579-0.257-1.43-0.482-2.411-0.482-1.511 0-2.796 0.611-3.713 1.639-0.203 0.235-0.38 0.499-0.54 0.778l-3.157-1.397c0.306-0.459 0.666-0.899 1.082-1.32 1.506-1.536 3.348-2.305 5.527-2.305s4.029 0.768 5.551 2.305c1.538 1.52 2.306 3.376 2.306 5.568 0 0.722-0.082 1.404-0.244 2.046l-5.27-2.332z"></path>
</symbol>
<symbol id="icon-creative-commons-noncommercial-us" viewBox="0 0 20 20">
<title>creative-commons-noncommercial-us</title>
<path d="M9.988 0.4c2.691 0 4.966 0.928 6.825 2.784s2.787 4.128 2.787 6.816-0.913 4.936-2.739 6.744c-1.939 1.904-4.23 2.856-6.873 2.856-2.611 0-4.862-0.944-6.752-2.832s-2.835-4.144-2.835-6.768 0.945-4.896 2.835-6.816c1.842-1.856 4.093-2.784 6.752-2.784zM2.56 7.421c-0.287 0.81-0.43 1.67-0.43 2.579 0 2.128 0.777 3.968 2.331 5.52s3.404 2.328 5.551 2.328c2.147 0 4.013-0.784 5.599-2.352 0.531-0.513 0.968-1.073 1.311-1.68l-3.619-1.612c-0.246 1.218-1.331 2.040-2.643 2.137v1.48h-1.102v-1.48c-1.078-0.012-2.118-0.453-2.914-1.15l1.322-1.333c0.637 0.599 1.273 0.869 2.143 0.869 0.563 0 1.188-0.22 1.188-0.954 0-0.26-0.101-0.441-0.26-0.577l-2.055-0.915c-0.564-0.251-1.041-0.464-1.521-0.677l-4.903-2.183zM10.012 2.128c-2.179 0-4.021 0.768-5.527 2.304-0.41 0.413-0.766 0.846-1.069 1.296l3.67 1.634c0.332-1.018 1.299-1.635 2.474-1.704v-1.48h1.102v1.48c0.759 0.037 1.592 0.245 2.412 0.881l-1.261 1.296c-0.465-0.33-1.053-0.563-1.641-0.563-0.477 0-1.151 0.147-1.151 0.746 0 0.091 0.030 0.172 0.086 0.244l2.058 0.917c0.531 0.236 1.039 0.462 1.542 0.686l4.919 2.19c0.163-0.645 0.244-1.33 0.244-2.055 0-2.192-0.769-4.048-2.307-5.568-1.522-1.536-3.372-2.304-5.551-2.304z"></path>
</symbol>
<symbol id="icon-creative-commons-public-domain" viewBox="0 0 20 20">
<title>creative-commons-public-domain</title>
<path d="M9.987 0.4c-2.659 0-4.91 0.928-6.752 2.784-1.891 1.92-2.835 4.192-2.835 6.816s0.945 4.88 2.835 6.768c1.89 1.888 4.141 2.832 6.752 2.832 2.643 0 4.934-0.952 6.873-2.856 1.826-1.808 2.74-4.056 2.74-6.744s-0.929-4.96-2.788-6.816c-1.859-1.856-4.133-2.784-6.825-2.784zM10.012 2.128c2.179 0 4.029 0.768 5.551 2.304 1.538 1.52 2.307 3.376 2.307 5.568 0 2.208-0.753 4.040-2.259 5.496-1.586 1.568-3.452 2.352-5.599 2.352s-3.997-0.776-5.551-2.328c-1.554-1.552-2.331-3.392-2.331-5.52s0.785-3.984 2.355-5.568c1.506-1.536 3.348-2.304 5.527-2.304z"></path>
<path d="M6.82 8.279h1.081c0.604 0 0.857 0.291 0.857 0.82 0 0.41-0.216 0.805-0.82 0.805h-1.118v-1.625zM5.493 12.601h1.342v-1.714h1.036c1.818 0 2.213-1.088 2.213-1.796 0-1.051-0.529-1.796-1.96-1.796h-2.631v5.306z"></path>
<path d="M10.445 12.601h2.057c1.617 0 2.705-0.768 2.705-2.653s-1.088-2.653-2.705-2.653h-2.057v5.306zM11.771 8.413h0.753c0.999 0 1.356 0.678 1.356 1.535s-0.358 1.535-1.349 1.535h-0.761v-3.070z"></path>
</symbol>
<symbol id="icon-creative-commons-remix" viewBox="0 0 20 20">
<title>creative-commons-remix</title>
<path d="M9.987 0.4c-2.659 0-4.91 0.928-6.752 2.784-1.89 1.92-2.835 4.192-2.835 6.816s0.945 4.88 2.835 6.767c1.89 1.888 4.141 2.832 6.752 2.832 2.643 0 4.935-0.952 6.873-2.856 1.826-1.808 2.739-4.056 2.739-6.744s-0.929-4.96-2.787-6.816c-1.859-1.856-4.134-2.784-6.825-2.784zM10.011 2.128c2.179 0 4.029 0.768 5.552 2.304 1.538 1.52 2.307 3.375 2.307 5.568 0 2.208-0.753 4.040-2.259 5.496-1.586 1.568-3.453 2.352-5.6 2.352s-3.997-0.776-5.55-2.328c-1.554-1.551-2.331-3.392-2.331-5.519s0.785-3.984 2.355-5.568c1.506-1.536 3.348-2.304 5.526-2.304z"></path>
<path d="M16.278 10.17l-1.911-0.794v-2.381l-5.871-2.444-2.617 1.15v2.723l0.028 0.012-2.309 0.961v2.467l2.467 1.058 2.48-1.027 0.168 0.067 5.138 2.119 0.112-0.047 2.503-1.069v-2.719l-0.188-0.075zM13.55 13.312l-0.023-0.009v0.015l-4.401-1.824v-1.735l4.401 1.799v0.056l0.023 0.010v1.689zM13.847 11.095l-1.395-0.598 1.503-0.644 1.433 0.596-1.54 0.646zM15.866 12.56l-1.716 0.739v-1.68l1.716-0.722v1.663z"></path>
</symbol>
<symbol id="icon-creative-commons-share" viewBox="0 0 20 20">
<title>creative-commons-share</title>
<path d="M9.987 0.4c-2.659 0-4.91 0.928-6.752 2.784-1.89 1.92-2.835 4.192-2.835 6.816s0.945 4.88 2.835 6.768c1.89 1.888 4.141 2.832 6.752 2.832 2.643 0 4.935-0.952 6.873-2.856 1.826-1.808 2.739-4.056 2.739-6.744s-0.929-4.96-2.787-6.816c-1.859-1.856-4.134-2.784-6.825-2.784zM10.011 2.127c2.179 0 4.029 0.768 5.552 2.304 1.538 1.52 2.307 3.375 2.307 5.568 0 2.208-0.753 4.040-2.259 5.496-1.586 1.568-3.453 2.352-5.6 2.352s-3.997-0.776-5.55-2.328c-1.554-1.552-2.331-3.392-2.331-5.52s0.785-3.984 2.355-5.568c1.506-1.536 3.348-2.304 5.526-2.304z"></path>
<path d="M13.932 7.25h-2.1v-2.091c0-0.29-0.235-0.525-0.525-0.525h-5.24c-0.016-0.001-0.032-0.001-0.047 0-0.272 0.025-0.479 0.253-0.478 0.525v7.069c0 0.29 0.235 0.525 0.525 0.525h2.1v2.091c0 0.29 0.235 0.525 0.525 0.525h5.24c0.29 0 0.525-0.235 0.525-0.525v-7.069c0-0.29-0.235-0.525-0.525-0.525zM6.591 11.703v-6.019h4.191v1.566h-2.091c-0.019-0.001-0.037-0.001-0.056 0-0.268 0.029-0.47 0.256-0.469 0.525v3.928h-1.575zM13.407 8.3v6.019h-4.191v-6.019h4.191z"></path>
</symbol>
<symbol id="icon-creative-commons-sharealike" viewBox="0 0 20 20">
<title>creative-commons-sharealike</title>
<path d="M9.988 0.4c-2.659 0-4.91 0.928-6.752 2.784-1.891 1.92-2.835 4.192-2.835 6.816s0.945 4.88 2.835 6.768c1.89 1.888 4.141 2.832 6.752 2.832 2.643 0 4.934-0.952 6.873-2.856 1.826-1.808 2.74-4.056 2.74-6.744s-0.929-4.96-2.788-6.816c-1.859-1.856-4.133-2.784-6.825-2.784zM10.012 2.128c2.179 0 4.029 0.768 5.551 2.304 1.538 1.52 2.307 3.376 2.307 5.568 0 2.208-0.753 4.040-2.259 5.496-1.586 1.568-3.452 2.352-5.599 2.352s-3.997-0.776-5.551-2.328c-1.554-1.552-2.331-3.392-2.331-5.52s0.785-3.984 2.355-5.568c1.506-1.536 3.348-2.304 5.527-2.304z"></path>
<path d="M5.733 8.645c0.383-2.415 2.083-3.707 4.214-3.707 3.065 0 4.933 2.224 4.933 5.189 0 2.894-1.987 5.142-4.98 5.142-2.059 0-3.903-1.267-4.238-3.754h2.418c0.072 1.291 0.91 1.746 2.107 1.746 1.365 0 2.251-1.268 2.251-3.205 0-2.033-0.766-3.109-2.203-3.109-1.053 0-1.963 0.383-2.155 1.698l0.703-0.004-1.904 1.903-1.904-1.903 0.758 0.004z"></path>
</symbol>
<symbol id="icon-creative-commons" viewBox="0 0 20 20">
<title>creative-commons</title>
<path d="M7.651 11.628c-0.406 0-0.713-0.148-0.92-0.445-0.209-0.295-0.313-0.689-0.313-1.182 0-1.084 0.41-1.627 1.232-1.627 0.164 0 0.342 0.055 0.533 0.164s0.353 0.301 0.484 0.574l1.232-0.641c-0.492-0.887-1.309-1.33-2.447-1.33-0.778 0-1.422 0.258-1.93 0.771-0.51 0.516-0.766 1.211-0.766 2.088 0 0.898 0.253 1.6 0.756 2.104 0.504 0.504 1.168 0.754 1.988 0.754 0.516 0 0.986-0.129 1.413-0.385 0.427-0.258 0.761-0.611 1.003-1.061l-1.135-0.574c-0.219 0.525-0.597 0.789-1.133 0.789zM12.958 11.628c-0.406 0-0.713-0.148-0.92-0.445-0.209-0.295-0.313-0.689-0.313-1.182 0-1.084 0.41-1.627 1.232-1.627 0.174 0 0.357 0.055 0.549 0.164 0.192 0.109 0.354 0.301 0.486 0.574l1.215-0.641c-0.482-0.887-1.293-1.33-2.432-1.33-0.777 0-1.421 0.258-1.93 0.771-0.51 0.516-0.764 1.211-0.764 2.088 0 0.898 0.248 1.6 0.747 2.104s1.163 0.754 1.996 0.754c0.503 0 0.97-0.129 1.396-0.385 0.428-0.258 0.768-0.611 1.020-1.061l-1.15-0.574c-0.219 0.525-0.598 0.789-1.133 0.789zM16.813 3.184c-1.859-1.856-4.134-2.784-6.825-2.784-2.659 0-4.91 0.927-6.752 2.784-1.89 1.92-2.835 4.192-2.835 6.816s0.945 4.88 2.835 6.768c1.89 1.888 4.141 2.832 6.752 2.832 2.643 0 4.935-0.952 6.873-2.856 1.826-1.808 2.739-4.056 2.739-6.744s-0.929-4.96-2.787-6.816zM15.611 15.496c-1.586 1.568-3.453 2.352-5.6 2.352s-3.997-0.776-5.55-2.328c-1.554-1.551-2.331-3.392-2.331-5.52s0.785-3.984 2.355-5.568c1.506-1.536 3.348-2.304 5.526-2.304s4.029 0.768 5.552 2.304c1.538 1.52 2.307 3.375 2.307 5.568 0 2.208-0.753 4.040-2.259 5.496z"></path>
</symbol>
<symbol id="icon-document-landscape" viewBox="0 0 20 20">
<title>document-landscape</title>
<path d="M19 3h-18c-0.552 0-1 0.447-1 1v12c0 0.553 0.448 1 1 1h18c0.552 0 1-0.447 1-1v-12c0-0.553-0.447-1-1-1zM18 15h-16v-10h16v10z"></path>
</symbol>
<symbol id="icon-paper-plane" viewBox="0 0 20 20">
<title>paper-plane</title>
<path d="M18.64 2.634c-0.344 0.121-17.321 6.104-17.656 6.222-0.284 0.1-0.347 0.345-0.010 0.479 0.401 0.161 3.796 1.521 3.796 1.521v0l2.25 0.901c0 0 10.838-7.958 10.984-8.066 0.148-0.108 0.318 0.095 0.211 0.211s-7.871 8.513-7.871 8.513v0.002l-0.452 0.503 0.599 0.322c0 0 4.65 2.504 4.982 2.682 0.291 0.156 0.668 0.027 0.752-0.334 0.099-0.426 2.845-12.261 2.906-12.525 0.079-0.343-0.148-0.552-0.491-0.431zM7 17.162c0 0.246 0.139 0.315 0.331 0.141 0.251-0.229 2.85-2.561 2.85-2.561l-3.181-1.644v4.064z"></path>
</symbol>
<symbol id="icon-phone" viewBox="0 0 32 32">
<title>phone</title>
<path d="M22 20c-2 2-2 4-4 4s-4-2-6-4-4-4-4-6 2-2 4-4-4-8-6-8-6 6-6 6c0 4 4.109 12.109 8 16s12 8 16 8c0 0 6-4 6-6s-6-8-8-6z"></path>
</symbol>
<symbol id="icon-location" viewBox="0 0 32 32">
<title>location</title>
<path d="M16 0c-5.523 0-10 4.477-10 10 0 10 10 22 10 22s10-12 10-22c0-5.523-4.477-10-10-10zM16 16c-3.314 0-6-2.686-6-6s2.686-6 6-6 6 2.686 6 6-2.686 6-6 6z"></path>
</symbol>
<symbol id="icon-linkedin2" viewBox="0 0 32 32">
<title>linkedin2</title>
<path d="M12 12h5.535v2.837h0.079c0.77-1.381 2.655-2.837 5.464-2.837 5.842 0 6.922 3.637 6.922 8.367v9.633h-5.769v-8.54c0-2.037-0.042-4.657-3.001-4.657-3.005 0-3.463 2.218-3.463 4.509v8.688h-5.767v-18z"></path>
<path d="M2 12h6v18h-6v-18z"></path>
<path d="M8 7c0 1.657-1.343 3-3 3s-3-1.343-3-3c0-1.657 1.343-3 3-3s3 1.343 3 3z"></path>
</symbol>
<symbol id="icon-git" viewBox="0 0 32 32">
<title>git</title>
<path d="M31.397 14.575l-13.972-13.971c-0.804-0.805-2.109-0.805-2.915 0l-3.246 3.246 2.443 2.443c0.392-0.187 0.83-0.293 1.293-0.293 1.657 0 3 1.343 3 3 0 0.463-0.105 0.902-0.293 1.293l3.999 3.999c0.392-0.187 0.83-0.293 1.293-0.293 1.657 0 3 1.343 3 3s-1.343 3-3 3-3-1.343-3-3c0-0.463 0.105-0.902 0.293-1.293l-3.999-3.999c-0.095 0.046-0.193 0.086-0.293 0.121v8.343c1.165 0.412 2 1.522 2 2.829 0 1.657-1.343 3-3 3s-3-1.343-3-3c0-1.306 0.835-2.417 2-2.829v-8.343c-1.165-0.412-2-1.522-2-2.829 0-0.463 0.105-0.902 0.293-1.293l-2.443-2.443-9.247 9.246c-0.805 0.806-0.805 2.11 0 2.915l13.973 13.971c0.804 0.805 2.109 0.805 2.915 0l13.906-13.906c0.805-0.805 0.805-2.111-0-2.915z"></path>
</symbol>
</defs>
</svg>
